<?xml version="1.0" standalone="no"?>
<!DOCTYPE svg PUBLIC "-//W3C//DTD SVG 20010904//EN"
 "http://www.w3.org/TR/2001/REC-SVG-20010904/DTD/svg10.dtd">
<svg version="1.0" xmlns="http://www.w3.org/2000/svg"
 width="370.000000pt" height="430.000000pt" viewBox="0 0 370.000000 430.000000"
 preserveAspectRatio="xMidYMid meet">

<g transform="translate(0.000000,430.000000) scale(0.100000,-0.100000)"
fill="#000000" stroke="none">
<path d="M70 2160 l0 -2080 265 0 c146 0 265 1 265 3 0 3 23 59 125 307 12 30
37 89 54 130 18 41 39 92 46 113 8 20 21 52 29 70 8 17 26 58 40 90 l25 57
-171 -2 -172 -3 -78 -184 c-43 -102 -81 -187 -83 -190 -3 -2 -5 98 -5 222 l0
227 553 0 c586 0 702 6 886 46 166 35 271 71 431 147 57 27 190 105 190 111 0
7 -123 282 -128 288 -4 4 -40 -16 -81 -44 -154 -104 -335 -179 -536 -220 -93
-19 -143 -21 -707 -25 l-608 -4 0 1361 0 1362 643 -5 c600 -4 648 -5 737 -25
190 -41 366 -119 510 -226 93 -69 252 -229 316 -316 100 -135 171 -290 220
-475 27 -105 29 -119 28 -325 -1 -202 -2 -221 -28 -315 -34 -124 -73 -223
-126 -316 l-41 -73 72 -168 c40 -92 74 -168 77 -168 17 0 143 181 200 290 132
247 191 522 179 830 -9 208 -39 361 -108 534 -197 497 -652 893 -1161 1011
-59 14 -149 29 -200 35 -52 5 -435 10 -875 10 l-783 0 0 -2080z"/>
<path d="M1646 3368 c-7 -18 -45 -107 -84 -198 -38 -91 -90 -212 -115 -270
-24 -58 -70 -166 -102 -240 -99 -235 -356 -841 -420 -990 -75 -175 -155 -369
-155 -374 0 -4 75 -5 166 -4 l167 3 49 120 c27 66 73 179 103 250 29 72 73
177 98 235 24 58 132 315 238 572 107 257 197 468 201 468 3 0 35 -69 71 -152
36 -84 111 -259 167 -388 56 -129 143 -329 192 -445 78 -182 168 -389 213
-490 7 -16 57 -131 110 -255 54 -124 163 -376 242 -560 168 -386 208 -480 230
-533 l15 -37 254 0 254 0 0 680 0 680 -165 0 -165 0 0 -487 c0 -274 -4 -483
-9 -477 -4 5 -60 131 -124 279 -63 149 -195 455 -292 680 -97 226 -204 473
-237 550 -33 77 -75 174 -93 215 -18 41 -65 149 -103 240 -72 169 -344 800
-389 903 l-26 57 -138 0 -139 0 -14 -32z"/>
<path d="M3315 1928 c-80 -28 -124 -93 -125 -181 0 -79 40 -141 113 -172 103
-43 227 17 257 123 13 49 13 62 -5 113 -19 54 -49 86 -100 110 -44 21 -94 23
-140 7z"/>
</g>
</svg>
